<?xml version="1.0" encoding="utf-8"?>
<!-- Generator: Adobe Illustrator 26.0.1, SVG Export Plug-In . SVG Version: 6.00 Build 0)  -->
<svg version="1.1" xmlns="http://www.w3.org/2000/svg" xmlns:xlink="http://www.w3.org/1999/xlink" x="0px" y="0px"
	 viewBox="0 0 600 600" style="enable-background:new 0 0 600 600;" xml:space="preserve">
<style type="text/css">
	.st0{display:none;fill:#81C614;}
	.st1{display:none;fill:#20448E;}
	.st2{display:none;}
	.st3{display:inline;}
	.st4{fill:#FFC648;}
	.st5{fill:#F77F43;}
	.st6{fill:#DB3E89;}
	.st7{fill:#1FCEEA;}
	.st8{fill:#70EDC6;}
	.st9{fill:#5A57DD;}
</style>
<g id="Layer_1">
	<rect x="0.4" y="0.5" class="st0" width="600" height="600"/>
	<path class="st1" d="M400,300c0,0-100,1-100-100c0-55.2-44.8-100-100-100s-100,44.8-100,100c0,49.8,36.4,91.1,84,98.7v2.6
		c-47.6,7.7-84,49-84,98.7c0,55.2,44.8,100,100,100c52,0,94.8-39.8,99.6-90.6h0.9C305.2,460.2,348,500,400,500
		c55.2,0,100-44.8,100-100S455.2,300,400,300z"/>
	<g class="st2">
		<g class="st3">
			<path class="st4" d="M410,290h-85.4c-8.1,0-14.6-6.5-14.6-14.6V190c0-55.2,44.8-100,100-100l0,0c55.2,0,100,44.8,100,100l0,0
				C510,245.2,465.2,290,410,290z"/>
		</g>
		<g class="st3">
			<path class="st5" d="M510,410L510,410c0,55.2-44.8,100-100,100l0,0c-55.2,0-100-44.8-100-100v-85.4c0-8.1,6.5-14.6,14.6-14.6H410
				C465.2,310,510,354.8,510,410z"/>
		</g>
		<g class="st3">
			<path class="st5" d="M90,190L90,190c0-55.2,44.8-100,100-100l0,0c55.2,0,100,44.8,100,100v85.4c0,8.1-6.5,14.6-14.6,14.6H190
				C134.8,290,90,245.2,90,190z"/>
		</g>
		<g class="st3">
			<path class="st6" d="M190,310h85.4c8.1,0,14.6,6.5,14.6,14.6V410c0,55.2-44.8,100-100,100l0,0c-55.2,0-100-44.8-100-100l0,0
				C90,354.8,134.8,310,190,310z"/>
		</g>
	</g>
	<path class="st7" d="M257.4,301.6H101.9c-8.8,0-16-7.2-16-16V130.1c0-8.8,7.2-16,16-16h155.5c8.8,0,16,7.2,16,16v155.5
		C273.4,294.4,266.3,301.6,257.4,301.6z"/>
	<path class="st8" d="M421.7,88.1l-118.4,68.4c-7.7,4.4-10.3,14.2-5.9,21.9l68.4,118.4c4.4,7.7,14.2,10.3,21.9,5.9l118.4-68.4
		c7.7-4.4,10.3-14.2,5.9-21.9L443.6,93.9C439.1,86.3,429.3,83.7,421.7,88.1z"/>
	<path class="st9" d="M257.4,514.1H101.9c-8.8,0-16-7.2-16-16V342.6c0-8.8,7.2-16,16-16h155.5c8.8,0,16,7.2,16,16v155.5
		C273.4,506.9,266.3,514.1,257.4,514.1z"/>
	<path class="st7" d="M469.9,514.1H314.4c-8.8,0-16-7.2-16-16V342.6c0-8.8,7.2-16,16-16h155.5c8.8,0,16,7.2,16,16v155.5
		C485.9,506.9,478.8,514.1,469.9,514.1z"/>
</g>
<g id="Layer_2" class="st2">
	<g class="st3">
		<path class="st4" d="M1080.1,434.9c-34.9,0-63.2-28.3-63.2-63.2v-130h-45.7c-23.3,0-42.2,18.9-42.2,42.2v196.7
			c0,23.3,18.9,42.2,42.2,42.2H1092v-87.8H1080.1z"/>
		<path class="st4" d="M1210.1,304.9V319h87.8V196c0-23.3-18.9-42.2-42.2-42.2H1059c-23.3,0-42.2,18.9-42.2,42.2v45.7h130
			C1181.8,241.7,1210.1,270,1210.1,304.9z"/>
		<path class="st5" d="M1080.1,434.9h11.9v-31.6c0-46.6,37.8-84.3,84.3-84.3h33.7v-14.1c0-34.9-28.3-63.2-63.2-63.2h-130v130
			C1016.8,406.6,1045.1,434.9,1080.1,434.9z"/>
		<path class="st4" d="M1330.9,319h-33v31.6c0,46.6-37.8,84.3-84.3,84.3h-3.5v3.5c0,46.6-37.8,84.3-84.3,84.3H1092v35.1
			c0,23.3,18.9,42.2,42.2,42.2h196.7c23.3,0,42.2-18.9,42.2-42.2V361.1C1373.1,337.8,1354.2,319,1330.9,319z"/>
		<path class="st5" d="M1210.1,438.4v-3.5h-118v87.8h33.7C1172.3,522.7,1210.1,485,1210.1,438.4z"/>
		<path class="st5" d="M1210.1,434.9h3.5c46.6,0,84.3-37.8,84.3-84.3V319h-87.8V434.9z"/>
		<path class="st6" d="M1176.3,319c-46.6,0-84.3,37.8-84.3,84.3v31.6h118V319H1176.3z"/>
	</g>
	
		<image style="display:inline;overflow:visible;" width="564" height="423" xlink:href="c059de055c0a7d69b592294a8846322e.jpg"  transform="matrix(1 0 0 1 1866.7419 608.7258)">
	</image>
</g>
</svg>
