<?xml version="1.0" encoding="utf-8"?>
<!-- Generator: Adobe Illustrator 26.0.1, SVG Export Plug-In . SVG Version: 6.00 Build 0)  -->
<svg version="1.1" id="Layer_1" xmlns="http://www.w3.org/2000/svg" xmlns:xlink="http://www.w3.org/1999/xlink" x="0px" y="0px"
	 viewBox="0 0 1080 1080" style="enable-background:new 0 0 1080 1080;" xml:space="preserve">
<style type="text/css">
	.st0{fill:#D85B85;}
	.st1{fill:#F2ADCE;}
	.st2{fill:#FFFFFF;}
</style>
<rect class="st0" width="1080" height="1080"/>
<g>
	<path class="st1" d="M839.7,658.1L719.4,449.6c-31.1-53.8-108.7-53.8-139.7,0l-38.7,67L622.6,658c31.1,53.8-7.8,121-69.8,121h217.1
		C831.9,779.1,870.7,711.9,839.7,658.1z"/>
	<path class="st1" d="M459.2,658.1l81.6-141.4l-39.6-68.6c-31.1-53.8-108.7-53.8-139.7,0l-121.2,210c-31.1,53.8,7.8,121,69.8,121
		h219C467,779.1,428.2,711.9,459.2,658.1z"/>
	<path class="st2" d="M622.6,658.1l-81.6-141.4l-81.6,141.4c-31.1,53.8,7.7,121,69.8,121h23.5C614.8,779.1,653.6,711.9,622.6,658.1z
		"/>
	<circle class="st2" cx="538.2" cy="272.9" r="83.9"/>
</g>
</svg>
