<?xml version="1.0" encoding="utf-8"?>
<!-- Generator: Adobe Illustrator 26.0.1, SVG Export Plug-In . SVG Version: 6.00 Build 0)  -->
<svg version="1.1" id="Layer_1" xmlns="http://www.w3.org/2000/svg" xmlns:xlink="http://www.w3.org/1999/xlink" x="0px" y="0px"
	 viewBox="0 0 1080 1080" style="enable-background:new 0 0 1080 1080;" xml:space="preserve">
<style type="text/css">
	.st0{display:none;}
	.st1{display:inline;}
	.st2{fill:#EB8FB8;}
	.st3{fill:#D85B85;}
	.st4{fill:#7070F2;}
	.st5{fill:#7C7CED;}
	.st6{fill:#9C9CF2;}
	.st7{fill:#5858ED;}
	.st8{fill-rule:evenodd;clip-rule:evenodd;fill:#1DB553;}
	.st9{fill-rule:evenodd;clip-rule:evenodd;fill:#56C156;}
	.st10{fill-rule:evenodd;clip-rule:evenodd;fill:#8CD17D;}
	.st11{fill-rule:evenodd;clip-rule:evenodd;fill:#B2E094;}
	.st12{fill:#A3A3EF;}
	.st13{fill:#C3C3F4;}
	.st14{fill:#FFFFFF;}
</style>
<g id="Layer_1_00000031893095851657237100000001737887904917058208_" class="st0">
	<g class="st1">
		<path class="st2" d="M897.9,717.5l-143.7-249c-37.1-64.2-129.8-64.2-166.9,0l-46.2,80l97.5,168.9c37.1,64.2-9.3,144.5-83.4,144.5
			h259.3C888.6,862,935,781.7,897.9,717.5z"/>
		<path class="st2" d="M443.5,717.5L541,548.6l-47.3-81.9c-37.1-64.2-129.8-64.2-166.9,0L182.1,717.5C145,781.7,191.4,862,265.5,862
			H527C452.8,862,406.5,781.7,443.5,717.5z"/>
		<path class="st3" d="M638.6,717.5l-97.5-168.9l-97.5,168.9C406.5,781.7,452.8,862,527,862h28.1C629.3,862,675.7,781.7,638.6,717.5
			z"/>
		<circle class="st3" cx="537.8" cy="257.5" r="100.2"/>
	</g>
</g>
<g id="Layer_2_00000061433274669203347620000002935902343709564852_" class="st0">
	<g class="st1">
		<g>
			
				<rect x="297.7" y="709.6" transform="matrix(0.5088 -0.8609 0.8609 0.5088 -427.2931 714.5553)" class="st4" width="229.6" height="44.3"/>
		</g>
		<g>
			
				<rect x="637.4" y="674.6" transform="matrix(0.8619 -0.507 0.507 0.8619 -295.9144 439.7665)" class="st5" width="44.3" height="177.2"/>
		</g>
		<g>
			<rect x="210.3" y="511.9" class="st6" width="134.8" height="44.3"/>
		</g>
		<g>
			
				<rect x="579.8" y="300.7" transform="matrix(0.4742 -0.8804 0.8804 0.4742 55.4943 738.5984)" class="st6" width="132.7" height="44.3"/>
		</g>
		<g>
			<circle class="st6" cx="678.9" cy="267.9" r="69.5"/>
		</g>
		<g>
			<path class="st7" d="M899.7,464.7c-38.2-18.7-75.9-6.6-96.8,19.6c-10.6,13.3-27.2,20.3-44.2,20.3c-16.8,0-37.4,0-54.3,0
				c-18,0-34.8-10.5-41.4-27.2c-2.3-5.9-5.1-11.8-8.3-17.5l-0.5-0.9c-33.5-56.7-99.6-83-160.6-69.4c-11.7,2.6-23.6-2.9-29.6-13.2
				l-20.8-35.6c-10.7-18.3-12.8-40-7.4-60.5c4.5-17.3,3-37.1-7.2-57.1c-6.1-12-16.1-21.8-28.2-27.7c-66.9-32.8-132.9,30.2-105.7,97
				c3.5,8.5,9.1,16,16,22.1c15,13,29.4,19.2,43,21.1c16,2.3,30.4,10.7,38.5,24.6c7.7,13.3,15.6,26.8,15.6,26.8
				c12.3,21.1,10.7,42.3-1.2,58.2c-34.1,45.5-40.3,109.1-10.6,162.5l0.9,1.6c29,47.1,78,73,128.1,73c25.2,0,50.7-6.6,74-20.4
				c29.7-17.1,51.3-43.2,63.3-72.9c7.5-18.5,25.4-30.6,45.4-30.6h46c19.3,0,38.3,7.5,50.8,22.2c13.9,16.4,34.6,26.7,57.7,26.7
				c53.9,0,94.7-56.3,66.9-113.3C923,481.4,912.5,470.9,899.7,464.7z M558.2,592.2c-31.8,18.9-71.1,8.3-91.9-24.4
				c-17.8-33-6.5-74,25.9-92c32.5-18.7,72.9-8.2,92.1,23.9C602.2,532.1,590.7,573.4,558.2,592.2z"/>
		</g>
		<g>
			<circle class="st5" cx="696.4" cy="824" r="69.5"/>
		</g>
		<g>
			<circle class="st4" cx="363.4" cy="815.6" r="69.5"/>
		</g>
		<g>
			<circle class="st6" cx="211.3" cy="535.5" r="69.5"/>
		</g>
	</g>
</g>
<g id="Layer_3" class="st0">
	<g class="st1">
		<path class="st8" d="M421.2,912.8H199.7c-11,0-20-9-20-20V359.7c0-11,9-20,20-20h217.7c2.1,0,3.8,1.7,3.8,3.8L421.2,912.8
			L421.2,912.8z"/>
		<path class="st9" d="M593.7,912.8H352.2V187.2c0-11,9-20,20-20h201.5c11,0,20,9,20,20V912.8z"/>
		<path class="st10" d="M748.9,912.8H524.7V438.2c0-11,9-20,20-20h184.2c11,0,20,9,20,20V912.8z"/>
		<path class="st11" d="M880.3,912.8h-187V558.6c0-11,9-20,20-20h167c11,0,20,9,20,20v334.2C900.3,903.9,891.4,912.8,880.3,912.8z"
			/>
	</g>
</g>
<rect class="st7" width="1080" height="1080"/>
<path class="st12" d="M507,690.4l-181.6-69.9l-107.8,40.2c-35.4,13.2-35.5,64.7-0.1,78l278,104.8c28.8,10.9,60.4,11,89.4,0.4
	L862.5,742c35.4-13,35.8-64.5,0.5-78l-108.1-41.4l-181.5,68C551.9,698.7,528.4,698.6,507,690.4z"/>
<path class="st13" d="M866.6,504.2l-111.8-43.7l-133.7,49.1l-104.9-59.9l-99.9,43l-91.1-34.3l-111.7,42.5
	c-34.5,13.1-34.6,63.3-0.1,76.6l111.9,43.1l0.4-0.1l-0.4,0.1L507,690.4c21.4,8.2,44.9,8.3,66.3,0.3L692,646.2l0,0l62.8-23.5l0,0
	L866.1,581C900.8,568,901.1,517.7,866.6,504.2z"/>
<path class="st14" d="M862.8,342.9l-276.5-106c-29.9-11.4-62.7-11.6-92.7-0.4L217.4,339.7c-35.3,13.2-35.4,64.6-0.1,77.9l53.3,20.1
	l54.7,20.6l166.1,62.6c31.4,11.9,66.1,12,97.6,0.4l24.4-9h0l0.1,0l141.3-51.9l-0.1,0l44.6-16.4l63-23.1
	C897.8,408,898.1,356.5,862.8,342.9z"/>
</svg>
