<?xml version="1.0" encoding="utf-8"?>
<!-- Generator: Adobe Illustrator 26.0.1, SVG Export Plug-In . SVG Version: 6.00 Build 0)  -->
<svg version="1.1" xmlns="http://www.w3.org/2000/svg" xmlns:xlink="http://www.w3.org/1999/xlink" x="0px" y="0px"
	 viewBox="0 0 600 600" style="enable-background:new 0 0 600 600;" xml:space="preserve">
<style type="text/css">
	.st0{display:none;}
	.st1{display:inline;}
	.st2{fill:#A84AE5;}
	.st3{display:inline;fill:#DEF1FC;}
	.st4{fill:#1C4EA0;}
	.st5{fill:#44E293;}
	.st6{fill:#39C9D8;}
	.st7{fill:#C7E6EA;}
	.st8{fill:#E6F2FC;}
</style>
<g id="Layer_1" class="st0">
	<g id="Layer_1_00000076577291762072690060000005612653678905637028_">
		<g class="st1">
			<rect x="1.1" class="st2" width="600" height="600"/>
		</g>
	</g>
	<g id="Layer_2_00000051349017345926710400000003342457306180016800_">
		<path class="st3" d="M532.6,387.5V211.9c0-32.2-17.2-61.9-45-77.9l-152-87.8c-27.8-16.1-62.2-16.1-90,0L93.6,134
			c-27.8,16.1-45,45.8-45,77.9v175.6c0,32.2,17.2,61.9,45,77.9l152,87.8c27.8,16.1,62.2,16.1,90,0l152-87.8
			C515.5,449.4,532.6,419.7,532.6,387.5z"/>
	</g>
	<g id="Layer_3" class="st1">
		<path class="st4" d="M400,300c0,0-100,1-100-100c0-55.2-44.8-100-100-100s-100,44.8-100,100c0,49.8,36.4,91.1,84,98.7v2.6
			c-47.6,7.7-84,49-84,98.7c0,55.2,44.8,100,100,100c52,0,94.8-39.8,99.6-90.6h0.9C305.2,460.2,348,500,400,500
			c55.2,0,100-44.8,100-100S455.2,300,400,300z"/>
		<g>
			<path class="st5" d="M400,300h-85.4c-8.1,0-14.6-6.5-14.6-14.6V200c0-55.2,44.8-100,100-100l0,0c55.2,0,100,44.8,100,100l0,0
				C500,255.2,455.2,300,400,300z"/>
		</g>
	</g>
</g>
<g id="Layer_2">
	<path class="st6" d="M599.8,0h-600v600h37.9C70.4,478.9,175.4,390.3,300,390.3h0c124.6,0,229.6,88.6,262.3,209.7h37.4V0z"/>
	<path class="st7" d="M300,377.9L300,377.9c-131.9,0-243.2,93.8-277.8,222.1h555.6C543.2,471.8,431.9,377.9,300,377.9z"/>
	<circle class="st8" cx="297.8" cy="225.2" r="94.8"/>
</g>
</svg>
